<svg id="Ebene_1" data-name="Ebene 1" xmlns="http://www.w3.org/2000/svg" viewBox="0 0 1000 1000"><defs><style>.cls-1{fill:none;stroke:#333;stroke-miterlimit:10;stroke-width:18px;}.cls-2{fill:#fff;}.cls-3{font-size:159px;fill:#333;font-family:Bungee-Regular, Bungee;}.cls-4{letter-spacing:-0.02em;}.cls-5{letter-spacing:-0.01em;}.cls-6{fill:#208;}</style></defs><rect class="cls-1" x="28.54" y="423.5" width="928" height="248.5" rx="68.67"/><rect class="cls-2" x="70.42" y="403.5" width="700.79" height="42.98"/><text class="cls-3" transform="translate(70.42 486.12)">Radio</text><text class="cls-3" transform="translate(459.59 636.82)">Pl<tspan class="cls-4" x="218.93" y="0">a</tspan><tspan class="cls-5" x="331.03" y="0">y</tspan></text><path class="cls-6" d="M261.46,617.58l21,17.17a5.31,5.31,0,0,0,2,1.11,9,9,0,0,0,3,.48h24.85q3.88,0,5.65-1.75t1.78-5.56V526a9.47,9.47,0,0,0-.57-3.5,5.83,5.83,0,0,0-1.69-2.38l-20.82-17.34a6.51,6.51,0,0,0-2.18-1,10.84,10.84,0,0,0-3-.4H237.74q-19.2,0-26.3,7.87t-7.1,20.28v7.31a32.9,32.9,0,0,0,1.45,10.26,15.3,15.3,0,0,0,4.68,7.07h.16a21.91,21.91,0,0,0-12.18,8.27q-4.59,6.2-4.6,15.58V611.7a9.5,9.5,0,0,0,.57,3.5,5.9,5.9,0,0,0,1.69,2.38l21,17.17a5.31,5.31,0,0,0,2,1.11,9,9,0,0,0,3,.48h25c2.58,0,4.47-.58,5.65-1.75s1.78-3,1.78-5.56V604.7a6.67,6.67,0,0,1,1-3.89c.65-.9,1.83-1.36,3.55-1.36h.16V611.7a9.5,9.5,0,0,0,.57,3.5A6,6,0,0,0,261.46,617.58Zm5.17-.16q-3.08,0-4.44-1.35a6,6,0,0,1-1.37-4.37V580.53H238.23q-3.39,0-4.76,1.67c-.92,1.12-1.37,2.84-1.37,5.17V611.7a5.92,5.92,0,0,1-1.38,4.37q-1.36,1.35-4.44,1.35h-25q-3.08,0-4.44-1.35a5.92,5.92,0,0,1-1.38-4.37V578q0-10,5.41-16.06a21.31,21.31,0,0,1,14.12-7,12.51,12.51,0,0,1-7-6.76,28.83,28.83,0,0,1-2-11.37V529.5q0-11.78,6.86-19.16t24.93-7.4h53.74a6.17,6.17,0,0,1,4.44,1.36,6,6,0,0,1,1.37,4.37v103a6,6,0,0,1-1.37,4.37,6.17,6.17,0,0,1-4.44,1.35Zm11.61-14.31h1.62V517.25H243.07q-9.36,0-13.88,5.17a19,19,0,0,0-4.52,13v11a31.7,31.7,0,0,0,1.94,12q1.94,4.7,7.74,6.44h-1.77q-9.84,0-14.68,4.38t-4.85,12.64v21.3h1.62v-21.3q0-7.8,4.36-11.69t13.55-3.9h45.66Zm0-84.27v45.95H243.07q-10,0-13.39-4.77t-3.4-13.51V535.38q0-7.32,4.12-11.93t12.67-4.61m17.75,12.72h-12.1q-4.2,0-5.65,2.15a9.29,9.29,0,0,0-1.45,5.33v5.4a9.29,9.29,0,0,0,1.45,5.33q1.45,2.15,5.65,2.14h12.1Z"/><path class="cls-6" d="M357.22,636.34h70.36q3.65,0,5.31-1.75t1.67-5.56V526a10.19,10.19,0,0,0-.53-3.5,5.93,5.93,0,0,0-1.6-2.38l-19.56-17.34a5.89,5.89,0,0,0-2-1,9.68,9.68,0,0,0-2.81-.4H337.66c-2.43,0-4.2.59-5.31,1.75s-1.67,3-1.67,5.57v18.6a10.23,10.23,0,0,0,.53,3.5,5.93,5.93,0,0,0,1.6,2.38l13,11.29a4.71,4.71,0,0,0-2.2,2.39A10.49,10.49,0,0,0,343,551v17a10.19,10.19,0,0,0,.53,3.5,6,6,0,0,0,1.6,2.39l13.49,11.92H337.66q-3.65,0-5.31,1.75t-1.67,5.56V611.7a10.23,10.23,0,0,0,.53,3.5,6,6,0,0,0,1.6,2.38l19.71,17.17a5,5,0,0,0,1.89,1.11A8,8,0,0,0,357.22,636.34Zm-19.56-18.92a5.56,5.56,0,0,1-4.17-1.35,6.19,6.19,0,0,1-1.29-4.37V593.09a6.19,6.19,0,0,1,1.29-4.37,5.56,5.56,0,0,1,4.17-1.35h41.85V573.7H349.94a5.56,5.56,0,0,1-4.17-1.35,6.2,6.2,0,0,1-1.29-4.38V551a6.19,6.19,0,0,1,1.29-4.37,5.56,5.56,0,0,1,4.17-1.35h29.57V533H337.66a5.56,5.56,0,0,1-4.17-1.35,6.19,6.19,0,0,1-1.29-4.37v-18.6a6.19,6.19,0,0,1,1.29-4.37,5.56,5.56,0,0,1,4.17-1.36H408a5.56,5.56,0,0,1,4.17,1.36,6.19,6.19,0,0,1,1.29,4.37v103a6.19,6.19,0,0,1-1.29,4.37,5.56,5.56,0,0,1-4.17,1.35Zm8.19-15.9v1.59H397V517.25h-51.1v1.59h49.58v39.91h-37.3v1.59h37.3v41.18Z"/><path class="cls-6" d="M169.17,608.93a5.25,5.25,0,0,1-4.13,8.49H149.42a5.23,5.23,0,0,1-4-1.81l-31.11-35.84a5.25,5.25,0,0,1,0-6.88l31.11-35.84a5.23,5.23,0,0,1,4-1.81H165a5.25,5.25,0,0,1,4.13,8.49l-23,29.36a5.26,5.26,0,0,0,0,6.48Z"/><path class="cls-6" d="M121.66,608.93a5.25,5.25,0,0,1-4.13,8.49H101.91a5.23,5.23,0,0,1-4-1.81L66.84,579.77a5.25,5.25,0,0,1,0-6.88L98,537.05a5.23,5.23,0,0,1,4-1.81h15.62a5.25,5.25,0,0,1,4.13,8.49l-23,29.36a5.26,5.26,0,0,0,0,6.48Z"/><path class="cls-6" d="M651.66,457.59a5.26,5.26,0,0,0,4,8.49H671a5.07,5.07,0,0,0,3.87-1.81l30.39-35.84a5.35,5.35,0,0,0,0-6.88l-30.39-35.84A5.07,5.07,0,0,0,671,383.9H655.7a5.26,5.26,0,0,0-4,8.49l22.5,29.36a5.34,5.34,0,0,1,0,6.48Z"/><path class="cls-6" d="M698.08,457.59a5.26,5.26,0,0,0,4,8.49h15.26a5.07,5.07,0,0,0,3.87-1.81l30.39-35.84a5.35,5.35,0,0,0,0-6.88l-30.39-35.84a5.07,5.07,0,0,0-3.87-1.81H702.12a5.26,5.26,0,0,0-4,8.49l22.5,29.36a5.34,5.34,0,0,1,0,6.48Z"/></svg>