<svg xmlns="http://www.w3.org/2000/svg" viewBox="0 0 946 311.75"><defs><style>.cls-1{fill:none;stroke:#333;stroke-miterlimit:10;stroke-width:18px;}.cls-2{fill:#333;}.cls-3{fill:#208;}</style></defs><g id="Ebene_2" data-name="Ebene 2"><g id="Ebene_1-2" data-name="Ebene 1"><path class="cls-1" d="M751.67,54.24H868.33c4.58,0,28.9.46,48.56,20.12A68.46,68.46,0,0,1,937,122.91V234.08a68.66,68.66,0,0,1-68.67,68.67H77.67A68.66,68.66,0,0,1,9,234.08V122.91A68.46,68.46,0,0,1,29.11,74.36c8.06-8.06,16.52-12.54,19.12-13.5"/><path class="cls-2" d="M92.06,116.86H67.58a6,6,0,0,1-4.38-1.35,6,6,0,0,1-1.35-4.37V8.11A6,6,0,0,1,63.2,3.74a6,6,0,0,1,4.38-1.36h52.94q17.8,0,24.57,7.4t6.75,19.16v7.31a29.23,29.23,0,0,1-2,11.37,12.42,12.42,0,0,1-6.92,6.76,20.92,20.92,0,0,1,13.91,7q5.33,6,5.33,16.06v33.71a4.9,4.9,0,0,1-5.73,5.72H131.81a4.9,4.9,0,0,1-5.72-5.72V86.81a8.17,8.17,0,0,0-1.36-5.17Q123.38,80,120,80H97.78v31.17a4.9,4.9,0,0,1-5.72,5.72ZM97.78,31V51.36h11.93c2.75,0,4.61-.72,5.56-2.15a9.36,9.36,0,0,0,1.43-5.33v-5.4a9.36,9.36,0,0,0-1.43-5.33c-1-1.43-2.81-2.15-5.56-2.15Z"/><path class="cls-2" d="M212.42,111.14a4.9,4.9,0,0,1-5.72,5.72H183.32a4.9,4.9,0,0,1-5.72-5.72v-42a46.91,46.91,0,0,1,1.51-11,122.23,122.23,0,0,1,4.69-14.47L197.63,7.63a7.5,7.5,0,0,1,2.94-4,9.45,9.45,0,0,1,5.17-1.28h42.77a9.14,9.14,0,0,1,5,1.28,7.45,7.45,0,0,1,2.94,4l13.83,36.09A120.41,120.41,0,0,1,275,58.19a46.91,46.91,0,0,1,1.51,11v42a4.9,4.9,0,0,1-5.72,5.72h-24a6.89,6.89,0,0,1-4.69-1.35c-1-.9-1.51-2.36-1.51-4.37V88.88H212.42Zm9.06-75.37L214,59.94h25L231.5,35.77a6.2,6.2,0,0,0-1.35-2.06,2.43,2.43,0,0,0-1.67-.64h-4a2.43,2.43,0,0,0-1.67.64A6.2,6.2,0,0,0,221.48,35.77Z"/><path class="cls-2" d="M355.36,116.86H301.77a4.9,4.9,0,0,1-5.72-5.72V8.11a6,6,0,0,1,1.35-4.37,6,6,0,0,1,4.37-1.36h53.59q19.88,0,29.49,8t9.62,24.49V84.43q0,16.53-9.62,24.48T355.36,116.86ZM332.14,32.75V86.81h18.92c2.55,0,4.43-.63,5.65-1.91s1.83-3.23,1.83-5.88V40.38c0-2.64-.61-4.58-1.83-5.8s-3.1-1.83-5.65-1.83Z"/><path class="cls-2" d="M417.84,116.86a4.9,4.9,0,0,1-5.72-5.72V92.22a4.91,4.91,0,0,1,5.72-5.73h15.74V33.07H417.84a6,6,0,0,1-4.37-1.35,6,6,0,0,1-1.35-4.37V8.11a6,6,0,0,1,1.35-4.37,6,6,0,0,1,4.37-1.36h67.73a6,6,0,0,1,4.37,1.36,6,6,0,0,1,1.36,4.37V27.35a6,6,0,0,1-1.36,4.37,6,6,0,0,1-4.37,1.35H470.15V86.49h15.42a4.92,4.92,0,0,1,5.73,5.73v18.92a4.91,4.91,0,0,1-5.73,5.72Z"/><path class="cls-2" d="M607.84,86.81a39,39,0,0,1-2.15,13.28,22.13,22.13,0,0,1-7.63,10.17q-5.49,4.21-15.1,6.6t-24.41,2.39q-14.79,0-24.49-2.39t-15.18-6.6a22.13,22.13,0,0,1-7.63-10.17,39,39,0,0,1-2.15-13.28V32.59a39,39,0,0,1,2.15-13.27,22.62,22.62,0,0,1,7.63-10.26q5.49-4.29,15.18-6.68T558.55,0Q573.34,0,583,2.38t15.1,6.68a22.62,22.62,0,0,1,7.63,10.26,39,39,0,0,1,2.15,13.27Zm-62.65-5.72a6.87,6.87,0,0,0,2.39,5.32q2.38,2.16,11,2.15t11-2.15a6.87,6.87,0,0,0,2.39-5.32V38.32a6.73,6.73,0,0,0-2.39-5.17q-2.38-2.14-11-2.15t-11,2.15a6.73,6.73,0,0,0-2.39,5.17Z"/><path class="cls-2" d="M481.39,267.56H456.74a4.9,4.9,0,0,1-5.72-5.72v-103a4.91,4.91,0,0,1,5.72-5.73H505.4q21.61,0,29.57,8.59t7.95,22.42v20.35q0,13.83-7.95,22.42t-29.57,8.58H487.11v26.4a4.9,4.9,0,0,1-5.72,5.72Zm5.4-84.74v24H501.1c3.08,0,5.09-.79,6-2.38a10.34,10.34,0,0,0,1.43-5.41v-8.42a10.36,10.36,0,0,0-1.43-5.41c-1-1.59-3-2.38-6-2.38Z"/><path class="cls-2" d="M646.11,267.56H565.18c-2,0-3.48-.45-4.37-1.35a6,6,0,0,1-1.36-4.37v-103a4.92,4.92,0,0,1,5.73-5.73h24.64a4.92,4.92,0,0,1,5.73,5.73v78.7h21.78V211.75a4.9,4.9,0,0,1,5.72-5.72h23.06a4.9,4.9,0,0,1,5.72,5.72v50.09a4.9,4.9,0,0,1-5.72,5.72Z"/><path class="cls-2" d="M702.39,261.84a4.9,4.9,0,0,1-5.72,5.72H673.29a4.9,4.9,0,0,1-5.72-5.72v-42a46.91,46.91,0,0,1,1.51-11,122.23,122.23,0,0,1,4.69-14.47l13.83-36.09a7.5,7.5,0,0,1,2.94-4,9.45,9.45,0,0,1,5.17-1.28h42.77a9.14,9.14,0,0,1,5,1.28,7.45,7.45,0,0,1,2.94,4l13.83,36.09A120.41,120.41,0,0,1,765,208.89a47,47,0,0,1,1.52,11v42a4.91,4.91,0,0,1-5.73,5.72h-24a6.89,6.89,0,0,1-4.69-1.35c-1-.9-1.51-2.36-1.51-4.37V239.58H702.39Zm9.06-75.37L704,210.64h25l-7.47-24.17a6.05,6.05,0,0,0-1.35-2.06,2.43,2.43,0,0,0-1.67-.64h-4a2.43,2.43,0,0,0-1.67.64A6.05,6.05,0,0,0,711.45,186.47Z"/><path class="cls-2" d="M840.08,267.56H814.32a4.9,4.9,0,0,1-5.72-5.72V241.49l-24.33-32.6a31.68,31.68,0,0,1-4.85-8.58q-1.18-3.66-1.19-11V158.81a4.91,4.91,0,0,1,5.73-5.73h24.48a4.91,4.91,0,0,1,5.72,5.73v26.07c0,1.06.06,2.18.16,3.34a6.81,6.81,0,0,0,1.28,3.34L822.91,203a6.32,6.32,0,0,0,1.67,2.07,3.58,3.58,0,0,0,2.15.63h1.59a3.57,3.57,0,0,0,2.14-.63,6.45,6.45,0,0,0,1.67-2.07l7.32-11.45a6.89,6.89,0,0,0,1.27-3.34c.1-1.16.16-2.28.16-3.34V158.81a4.91,4.91,0,0,1,5.72-5.73h23.69a4.91,4.91,0,0,1,5.72,5.73v30.53q0,7.31-1.27,11a36,36,0,0,1-4.77,8.58L845.8,241.65v20.19a4.9,4.9,0,0,1-5.72,5.72Z"/><path class="cls-3" d="M241.93,248.32l21,17.18a5.62,5.62,0,0,0,2,1.11,9,9,0,0,0,3,.47h24.85q3.87,0,5.64-1.74c1.19-1.17,1.78-3,1.78-5.57v-103a9.54,9.54,0,0,0-.57-3.5,5.9,5.9,0,0,0-1.69-2.38L277.1,133.53a6.27,6.27,0,0,0-2.17-1,10.55,10.55,0,0,0-3-.4H218.21q-19.22,0-26.3,7.87t-7.11,20.27v7.31a32.55,32.55,0,0,0,1.46,10.26,15.1,15.1,0,0,0,4.68,7.07h.16a22,22,0,0,0-12.19,8.27q-4.59,6.21-4.6,15.58v33.71a9.71,9.71,0,0,0,.57,3.5,5.92,5.92,0,0,0,1.69,2.38l21,17.18a5.53,5.53,0,0,0,2,1.11,9,9,0,0,0,3,.47h25q3.87,0,5.64-1.74c1.19-1.17,1.78-3,1.78-5.57V235.45a6.61,6.61,0,0,1,1-3.9c.64-.9,1.83-1.35,3.55-1.35h.16v12.24a9.73,9.73,0,0,0,.56,3.5A5.94,5.94,0,0,0,241.93,248.32Zm5.16-.16a6.17,6.17,0,0,1-4.44-1.35,5.94,5.94,0,0,1-1.37-4.37V211.28H218.69c-2.26,0-3.84.55-4.76,1.67a8.06,8.06,0,0,0-1.37,5.16v24.33a5.94,5.94,0,0,1-1.37,4.37c-.92.9-2.39,1.35-4.44,1.35h-25a6.17,6.17,0,0,1-4.44-1.35,5.94,5.94,0,0,1-1.37-4.37V208.73q0-10,5.4-16a21.37,21.37,0,0,1,14.13-7,12.5,12.5,0,0,1-7-6.76,28.77,28.77,0,0,1-2-11.37v-7.31q0-11.76,6.86-19.16t24.93-7.39h53.73q3.07,0,4.44,1.35a6,6,0,0,1,1.37,4.37v103a5.94,5.94,0,0,1-1.37,4.37q-1.36,1.35-4.44,1.35Zm11.62-14.31h1.61V148H223.53q-9.36,0-13.87,5.16a19,19,0,0,0-4.52,13v11a31.81,31.81,0,0,0,1.93,12q1.94,4.69,7.75,6.44H213q-9.84,0-14.68,4.37t-4.84,12.64v21.3h1.61v-21.3q0-7.78,4.36-11.69T213,197h45.67Zm0-84.26v45.95H223.53q-10,0-13.39-4.77t-3.39-13.52V166.12q0-7.31,4.12-11.92t12.66-4.61m17.75,12.72h-12.1q-4.2,0-5.65,2.14a9.29,9.29,0,0,0-1.45,5.33v5.41a9.25,9.25,0,0,0,1.45,5.32q1.46,2.15,5.65,2.15h12.1Z"/><path class="cls-3" d="M337.68,267.08h70.37q3.63,0,5.3-1.74c1.12-1.17,1.67-3,1.67-5.57v-103a10,10,0,0,0-.53-3.5,5.88,5.88,0,0,0-1.59-2.38l-19.56-17.33a5.87,5.87,0,0,0-2-1,9.36,9.36,0,0,0-2.81-.4H318.12c-2.43,0-4.19.58-5.31,1.75s-1.67,3-1.67,5.56V158a10.19,10.19,0,0,0,.53,3.5,6,6,0,0,0,1.6,2.39l13,11.29a4.69,4.69,0,0,0-2.2,2.38,10.69,10.69,0,0,0-.68,4.13v17a10.13,10.13,0,0,0,.53,3.49,5.85,5.85,0,0,0,1.59,2.39l13.5,11.92H318.12c-2.43,0-4.19.59-5.31,1.75s-1.67,3-1.67,5.57v18.6a10.23,10.23,0,0,0,.53,3.5,5.93,5.93,0,0,0,1.6,2.38L333,265.5a5.14,5.14,0,0,0,1.9,1.11A8,8,0,0,0,337.68,267.08Zm-19.56-18.92a5.56,5.56,0,0,1-4.17-1.35,6.17,6.17,0,0,1-1.29-4.37v-18.6a6.19,6.19,0,0,1,1.29-4.37,5.56,5.56,0,0,1,4.17-1.36H360V204.44H330.4a5.57,5.57,0,0,1-4.17-1.35,6.23,6.23,0,0,1-1.28-4.37v-17a6.23,6.23,0,0,1,1.28-4.37A5.57,5.57,0,0,1,330.4,176H360V163.74H318.12a5.56,5.56,0,0,1-4.17-1.35,6.2,6.2,0,0,1-1.29-4.38v-18.6A6.19,6.19,0,0,1,314,135a5.56,5.56,0,0,1,4.17-1.35h70.36a5.54,5.54,0,0,1,4.17,1.35,6.19,6.19,0,0,1,1.29,4.37v103a6.17,6.17,0,0,1-1.29,4.37,5.54,5.54,0,0,1-4.17,1.35Zm8.19-15.9v1.59h51.1V148h-51.1v1.59H375.9V189.5H338.59v1.58H375.9v41.18Z"/><path class="cls-3" d="M149.63,239.67a5.25,5.25,0,0,1-4.13,8.49H129.89a5.27,5.27,0,0,1-4-1.8l-31.1-35.85a5.25,5.25,0,0,1,0-6.88l31.1-35.84a5.25,5.25,0,0,1,4-1.81H145.5a5.25,5.25,0,0,1,4.13,8.49l-23,29.36a5.26,5.26,0,0,0,0,6.48Z"/><path class="cls-3" d="M102.12,239.67A5.25,5.25,0,0,1,98,248.16H82.37a5.27,5.27,0,0,1-4-1.8l-31.1-35.85a5.23,5.23,0,0,1,0-6.88l31.1-35.84a5.24,5.24,0,0,1,4-1.81H98a5.25,5.25,0,0,1,4.13,8.49l-23,29.36a5.26,5.26,0,0,0,0,6.48Z"/><path class="cls-3" d="M632.13,88.33a5.26,5.26,0,0,0,4,8.49h15.26A5.06,5.06,0,0,0,655.29,95l30.39-35.84a5.33,5.33,0,0,0,0-6.88L655.29,16.45a5.06,5.06,0,0,0-3.87-1.81H636.16a5.26,5.26,0,0,0-4,8.49l22.5,29.36a5.37,5.37,0,0,1,0,6.48Z"/><path class="cls-3" d="M678.55,88.33a5.26,5.26,0,0,0,4,8.49h15.26A5.06,5.06,0,0,0,701.71,95L732.1,59.17a5.33,5.33,0,0,0,0-6.88L701.71,16.45a5.06,5.06,0,0,0-3.87-1.81H682.58a5.26,5.26,0,0,0-4,8.49l22.5,29.36a5.34,5.34,0,0,1,0,6.48Z"/></g></g></svg>